<svg xmlns="http://www.w3.org/2000/svg" viewBox="0 0 32 36" width="128" height="144">
  <defs>
    <linearGradient id="gh0" x1="0" y1="0" x2="32" y2="36" gradientUnits="userSpaceOnUse">
      <stop offset="0%" stop-color="#5b7cfa"/>
      <stop offset="100%" stop-color="#8b5cf6"/>
    </linearGradient>
  </defs>
  <!-- Ghost body -->
  <path d="M5 18C5 10.27 9.93 4 16 4C22.07 4 27 10.27 27 18V33L23.5 30L20 33L16 29.5L12 33L8.5 30L5 33V18Z" fill="url(#gh0)"/>
  <!-- Eyes -->
  <ellipse cx="12" cy="18" rx="2.2" ry="2.8" fill="#0a0c12"/>
  <ellipse cx="20" cy="18" rx="2.2" ry="2.8" fill="#0a0c12"/>
  <circle cx="12.9" cy="16.7" r="0.9" fill="white" opacity="0.6"/>
  <circle cx="20.9" cy="16.7" r="0.9" fill="white" opacity="0.6"/>
  <!-- Col blanc -->
  <polygon points="10,22 16,29 16,22" fill="white"/>
  <polygon points="22,22 16,29 16,22" fill="white"/>
  <!-- Nœud cravate blanc -->
  <polygon points="13,23 19,23 18,27 14,27" fill="white" opacity="0.9"/>
  <!-- Corps cravate blanc -->
  <path d="M 14,27 L 12.5,32 L 16,34 L 19.5,32 L 18,27 Z" fill="white" opacity="0.9"/>
</svg>
